<svg xmlns="http://www.w3.org/2000/svg" version="1.1" xmlns:xlink="http://www.w3.org/1999/xlink" xmlns:svgjs="http://svgjs.com/svgjs" width="512" height="512" x="0" y="0" viewBox="0 0 512 512" style="enable-background:new 0 0 512 512" xml:space="preserve" class=""><g><path fill="#cfd2fc" d="M392 488H120a48 48 0 0 1-48-48V72a48 48 0 0 1 48-48h224l96 96v320a48 48 0 0 1-48 48z" data-original="#cfd2fc" class=""></path><path fill="#ffffff" d="M160 24h48v224h-48z" data-original="#ffffff" class=""></path><path fill="#5153ff" d="M176 24h16v240h-16zM72 360h368v80a48 48 0 0 1-48 48H120a48 48 0 0 1-48-48v-80z" data-original="#5153ff" class=""></path><g fill="#8690fa"><path d="M440 120h-48a48 48 0 0 1-48-48V24zM208 64h-48a8 8 0 0 1 0-16h48a8 8 0 0 1 0 16zM208 96h-48a8 8 0 0 1 0-16h48a8 8 0 0 1 0 16zM208 128h-48a8 8 0 0 1 0-16h48a8 8 0 0 1 0 16zM208 160h-48a8 8 0 0 1 0-16h48a8 8 0 0 1 0 16zM208 192h-48a8 8 0 0 1 0-16h48a8 8 0 0 1 0 16zM208 224h-48a8 8 0 0 1 0-16h48a8 8 0 0 1 0 16zM198.12 272.479 192 248h-16l-6.12 24.479a16 16 0 1 0 28.24 0z" fill="#8690fa" data-original="#8690fa" class=""></path></g><path fill="#ffffff" d="M272 400a8 8 0 0 0 0-16h-32a8 8 0 0 0 0 16h8v48h-8a8 8 0 0 0 0 16h32a8 8 0 0 0 0-16h-8v-48zM320 384h-16a8 8 0 0 0-8 8v64a8 8 0 0 0 16 0v-24h8a24 24 0 0 0 0-48zm0 32h-8v-16h8a8 8 0 0 1 0 16zM208 448h-19.056l26.211-52.422A8 8 0 0 0 208 384h-32a8 8 0 0 0 0 16h19.056l-26.211 52.422A8 8 0 0 0 176 464h32a8 8 0 0 0 0-16z" data-original="#ffffff" class=""></path></g></svg>